<svg id="Layer_1" data-name="Layer 1" xmlns="http://www.w3.org/2000/svg" viewBox="0 0 93.79 101.7"><defs><style>.cls-1{fill:#4275ba;}.cls-2{fill:#fff;}.cls-3{fill:#a3c439;}</style></defs><title>icono</title><path class="cls-1" d="M103.78,68.05c-5.3-26.6-10.9-55-10.9-55l-8.6,1.7v.1h0V15h-.6v.4H83l-.1.1a1,1,0,0,1-.4.3h-1.6c.2.4,0,.4-.3.5h0a8.55,8.55,0,0,1-1.6,0,2.13,2.13,0,0,1-.8,0,.6.6,0,0,1-.4.1h-.5a1.69,1.69,0,0,1-.5.2h-.7l-.2.2a.1.1,0,0,0-.1.1h0c-.2.1-.4,0-.6,0H74v.5a2.6,2.6,0,0,0-.4,1c0,.1-2.6-.1-2.7,0,0-.2.1-.4.1-.6h-.8v-.1h-.1l-40.7,8s-22.6,4.1-18.2,26.7,12.3,62.4,12.3,62.4l56.2-11.2S109,94.65,103.78,68.05Z" transform="translate(-10.61 -13.05)"/><path class="cls-2" d="M86.08,23.35l-49.8,9.8s-17.7,3.2-14.3,20.9,9.7,49,9.7,49l44-8.7s23-6.9,18.9-27.8S86.08,23.35,86.08,23.35Z" transform="translate(-10.61 -13.05)"/><path class="cls-3" d="M74.78,54l-34.1,6.7a2.52,2.52,0,0,1-3-2l-.1-.7a2.52,2.52,0,0,1,2-3l34.1-6.7a2.52,2.52,0,0,1,3,2l.1.7A2.57,2.57,0,0,1,74.78,54Z" transform="translate(-10.61 -13.05)"/><path class="cls-3" d="M78.38,72.45l-34.1,6.7a2.52,2.52,0,0,1-3-2l-.1-.7a2.52,2.52,0,0,1,2-3l34.1-6.7a2.52,2.52,0,0,1,3,2l.1.7A2.52,2.52,0,0,1,78.38,72.45Z" transform="translate(-10.61 -13.05)"/><rect class="cls-2" x="71.38" y="16.06" width="14.4" height="14.4" transform="translate(-13.63 2.61) rotate(-11.17)"/></svg>