<?xml version="1.0" encoding="utf-8"?>
<!-- Generator: Adobe Illustrator 22.0.0, SVG Export Plug-In . SVG Version: 6.00 Build 0)  -->
<svg version="1.1" id="Layer_1" xmlns="http://www.w3.org/2000/svg" xmlns:xlink="http://www.w3.org/1999/xlink" x="0px" y="0px"
	 viewBox="0 0 984.2 101.5" style="enable-background:new 0 0 984.2 101.5;" xml:space="preserve">
<style type="text/css">
	.st0{fill:#4275BA;}
	.st1{fill:#A3C439;}
	.st2{fill:#FFFFFF;}
</style>
<g>
	<path class="st0" d="M163.1,6.6l-3.4,9.8c-7.6-1.6-11.3,1.5-11.3,9.4v9.1h12.3v8.9h-12.3v47.1h-14.3V43.8h-6.7v-8.9h6.7V24.4
		c0-5.3,1.7-10,5-13.9s7.9-5.9,13.7-5.9C156.3,4.6,159.7,5.3,163.1,6.6z"/>
	<path class="st0" d="M218.2,88.2c-4.9,2.9-10.3,4.3-16.2,4.3c-5.8,0-11.2-1.4-16.2-4.3c-4.9-2.9-8.8-6.7-11.7-11.7
		c-2.9-4.9-4.3-10.3-4.3-16.1V34.7h14.3v28c0,4.9,1.7,9.1,5.2,12.5c3.4,3.4,7.6,5.2,12.5,5.2s9.1-1.7,12.5-5.2
		c3.4-3.4,5.2-7.6,5.2-12.5v-28h14.6v25.7c0,5.8-1.4,11.2-4.3,16.1C227,81.4,223.1,85.3,218.2,88.2z"/>
	<path class="st0" d="M255.2,5.7v85.2h-14.3V5.7H255.2z"/>
	<path class="st0" d="M276.2,5.7v85.2h-14.3V5.7H276.2z"/>
	<path class="st1" d="M318.6,6.6l-3.4,9.8c-7.6-1.6-11.3,1.5-11.3,9.4v9.1h12.3v8.9h-12.3v47.1h-14.3V43.8h-6.7v-8.9h6.7V24.4
		c0-5.3,1.7-10,5-13.9s7.9-5.9,13.7-5.9C311.8,4.6,315.2,5.3,318.6,6.6z"/>
	<path class="st1" d="M386.4,47.9c3.2,4.6,4.8,9.5,4.8,14.9v28.1h-14.3v-5.5c-2.6,2.1-5.9,3.9-9.7,5.2c-3.9,1.3-7.7,1.9-11.6,1.9
		c-10.2,0-18.6-2.9-25.3-8.6S320.2,71.2,320,62.8c-0.2-5.4,1.4-10.3,4.6-14.9c3.2-4.6,7.5-8.2,13.1-10.8c5.5-2.7,11.5-4,18-4
		s12.4,1.3,17.9,4C378.9,39.7,383.2,43.3,386.4,47.9z M340.3,50.2c-4.2,3.5-6.3,7.7-6.1,12.6c0.1,4.9,2.3,9.1,6.4,12.6
		c4.1,3.5,9.1,5.2,15,5.2s11-1.7,15.3-5.2c4.2-3.5,6.3-7.7,6.1-12.5c-0.1-4.9-2.2-9.1-6.3-12.6s-9.1-5.2-15-5.2
		C349.6,45,344.6,46.7,340.3,50.2z"/>
	<path class="st1" d="M452.7,37.5c5.8,3,10.2,6.8,13,11.6l-13.2,4.7c-1.8-2.7-4.4-4.9-7.8-6.5c-3.4-1.6-7.1-2.4-11-2.4
		c-5.9,0-10.9,1.7-15,5.2s-6.2,7.7-6.4,12.6c-0.1,4.8,1.9,9,6.1,12.5c4.2,3.5,9.3,5.2,15.2,5.2c3.9,0,7.4-0.8,10.5-2.4
		c3.2-1.6,5.7-3.8,7.7-6.5l13.5,4.1c-3.1,5.1-7.4,9.2-13,12.2s-11.9,4.5-18.8,4.5c-6.5,0-12.5-1.3-18-3.9s-9.9-6.2-13.1-10.8
		c-3.2-4.6-4.7-9.5-4.6-14.9c0.1-4.1,1.1-7.9,3-11.6c1.9-3.6,4.4-6.8,7.6-9.4c3.1-2.7,6.9-4.8,11.3-6.3c4.4-1.6,8.9-2.4,13.8-2.4
		C440.6,33.1,446.9,34.6,452.7,37.5z"/>
	<path class="st1" d="M497.9,92.5c-5.8,0-10.3-2-13.7-5.9c-3.3-3.9-5-8.5-5-13.9v-29h-6.7v-8.9h6.7V16.9h14.3v17.9h12.3v8.9h-12.3
		v27.6c0,7.8,3.8,10.9,11.3,9.4l3.4,9.8C504.8,91.8,501.4,92.5,497.9,92.5z"/>
	<path class="st1" d="M563.3,88.2c-4.9,2.9-10.3,4.3-16.2,4.3s-11.2-1.4-16.2-4.3c-4.9-2.9-8.8-6.7-11.7-11.7
		c-2.9-4.9-4.3-10.3-4.3-16.1V34.7h14.3v28c0,4.9,1.7,9.1,5.2,12.5c3.4,3.4,7.6,5.2,12.5,5.2s9.1-1.7,12.5-5.2
		c3.4-3.4,5.2-7.6,5.2-12.5v-28h14.5v25.7c0,5.8-1.4,11.2-4.3,16.1C572.1,81.4,568.2,85.3,563.3,88.2z"/>
	<path class="st1" d="M623.3,46.8c-1.7-0.5-3.4-0.8-5.3-0.8c-11.8,0-17.7,5.9-17.7,17.7v27.1H586V65.2c0-21.4,10.7-32.1,32.2-32.1
		c1.7,0,3.4,0.1,5.1,0.4V46.8z"/>
	<path class="st1" d="M693.4,47.9c3.2,4.6,4.8,9.5,4.8,14.9v28.1h-14.3v-5.5c-2.6,2.1-5.9,3.9-9.7,5.2c-3.9,1.3-7.7,1.9-11.6,1.9
		c-10.2,0-18.6-2.9-25.3-8.6S627.2,71.2,627,62.8c-0.2-5.4,1.4-10.3,4.6-14.9c3.2-4.6,7.5-8.2,13.1-10.8c5.5-2.7,11.5-4,18-4
		s12.4,1.3,17.9,4C685.9,39.7,690.2,43.3,693.4,47.9z M647.3,50.2c-4.2,3.5-6.3,7.7-6.1,12.6c0.1,4.9,2.3,9.1,6.4,12.6
		c4.1,3.5,9.1,5.2,15,5.2s11-1.7,15.3-5.2c4.2-3.5,6.3-7.7,6.1-12.5c-0.1-4.9-2.2-9.1-6.3-12.6s-9.1-5.2-15-5.2
		C656.6,45,651.5,46.7,647.3,50.2z"/>
	<path class="st0" d="M719.8,85c0,2-0.7,3.7-2.2,5.2s-3.2,2.2-5.2,2.2s-3.8-0.7-5.2-2.2c-1.5-1.5-2.2-3.2-2.2-5.2s0.7-3.8,2.2-5.2
		c1.5-1.5,3.2-2.2,5.2-2.2s3.8,0.7,5.2,2.2C719,81.2,719.8,83,719.8,85z"/>
	<path class="st0" d="M781.3,37.5c5.8,3,10.2,6.8,13,11.6l-13.2,4.7c-1.8-2.7-4.4-4.9-7.8-6.5c-3.4-1.6-7.1-2.4-11-2.4
		c-5.9,0-10.9,1.7-15,5.2s-6.2,7.7-6.4,12.6c-0.1,4.8,1.9,9,6.1,12.5c4.2,3.5,9.3,5.2,15.2,5.2c3.9,0,7.4-0.8,10.5-2.4
		c3.2-1.6,5.7-3.8,7.7-6.5l13.5,4.1c-3.1,5.1-7.4,9.2-13,12.2s-11.9,4.5-18.8,4.5c-6.5,0-12.5-1.3-18-3.9s-9.9-6.2-13.1-10.8
		c-3.2-4.6-4.7-9.5-4.6-14.9c0.1-4.1,1.1-7.9,3-11.6c1.9-3.6,4.4-6.8,7.6-9.4c3.1-2.7,6.9-4.8,11.3-6.3c4.4-1.6,8.9-2.4,13.8-2.4
		C769.2,33.1,775.5,34.6,781.3,37.5z"/>
	<path class="st0" d="M854.8,37.1c5.5,2.6,9.9,6.2,13.1,10.8c3.2,4.6,4.7,9.5,4.6,14.9c-0.2,4-1.2,7.9-3,11.5s-4.4,6.8-7.6,9.5
		s-6.9,4.8-11.3,6.3c-4.3,1.6-8.9,2.3-13.8,2.3c-6.4,0-12.4-1.3-17.9-3.9s-9.9-6.2-13.1-10.8c-3.2-4.6-4.7-9.5-4.6-14.9
		c0.2-4.1,1.2-7.9,3-11.6c1.9-3.6,4.4-6.8,7.5-9.4c3.1-2.7,6.9-4.8,11.3-6.3c4.4-1.6,8.9-2.3,13.8-2.3
		C843.3,33.1,849.3,34.5,854.8,37.1z M821.9,50.2c-4.1,3.5-6.2,7.7-6.3,12.6c-0.2,4.9,1.9,9.1,6.1,12.6s9.3,5.2,15.2,5.2
		c5.9,0,10.9-1.7,15-5.2s6.2-7.7,6.3-12.6c0.2-4.9-1.9-9.1-6.1-12.6s-9.3-5.2-15.3-5.2C831,45,826,46.7,821.9,50.2z"/>
	<path class="st0" d="M921.8,36.7c4.2,2.4,7.5,5.6,10.1,9.8c2.5-4.1,5.9-7.4,10-9.8c4.2-2.4,8.8-3.6,13.9-3.6c5.4,0,10.3,1.3,14.6,4
		c4.4,2.7,7.8,6.3,10.2,10.8c2.4,4.5,3.6,9.5,3.6,15v28h-14.6V60.4c0-4.3-1.5-7.9-4.5-10.9s-6.6-4.5-10.9-4.5s-7.9,1.5-10.9,4.5
		s-4.5,6.6-4.5,10.9v30.5h-14.5V60.4c0-4.3-1.5-7.9-4.5-10.9s-6.6-4.5-10.9-4.5s-7.9,1.5-10.8,4.5c-3,3-4.5,6.6-4.5,10.9v30.5h-14.3
		v-28c0-5.5,1.2-10.4,3.6-15c2.4-4.5,5.8-8.1,10.2-10.8c4.4-2.7,9.3-4,14.6-4C913,33.1,917.6,34.3,921.8,36.7z"/>
</g>
<g>
	<g>
		<path class="st0" d="M93.1,55C87.8,28.4,82.2,0,82.2,0l-8.6,1.7c0,0,0,0,0,0.1c0,0,0,0,0,0c0,0,0,0.1,0,0.1c0,0-0.3,0-0.4,0
			c-0.1,0-0.1,0-0.2,0C73,2,73,2.1,73,2.3c0,0-0.4,0-0.7,0c0,0-0.1,0.1-0.1,0.1c-0.2,0.2-0.2,0.2-0.4,0.3c0,0,0,0,0.1,0h-0.2
			c-0.1,0-0.1,0-0.2,0c-0.5,0-0.9,0-1.4,0c0,0,0,0,0,0c0.1,0,0.1,0,0.1,0c0.2,0.4,0,0.4-0.3,0.5c0,0,0,0,0,0h0c0,0,0,0,0,0
			c-0.5,0.1-1.1,0-1.6,0c-0.2,0-0.5,0.1-0.8,0c-0.1,0.1-0.3,0.1-0.4,0.1c0,0,0,0,0.1,0l-0.2,0c-0.1,0-0.2,0-0.3,0c0,0,0,0-0.1,0
			c-0.2,0.1-0.4,0.2-0.5,0.2c0,0,0,0,0,0h0c0,0,0,0,0,0c-0.2,0-0.5,0-0.7,0c-0.1,0.1-0.1,0.1-0.2,0.2c0,0-0.1,0-0.1,0.1c0,0,0,0,0,0
			h0c-0.2,0.1-0.4,0-0.6,0c-0.4,0-0.8,0-1.2,0c0,0.2,0,0.3,0,0.5C63,4.7,63,5,62.9,5.3c0,0.1-2.6-0.1-2.7,0c0-0.2,0.1-0.4,0.1-0.6
			c-0.1,0-0.3,0-0.4,0c0.1,0-0.4,0-0.4,0c0,0,0-0.1,0-0.1c0,0-0.1,0-0.1,0c0,0,0,0,0,0c0,0,0,0,0,0c0,0,0,0,0,0c0,0,0,0,0,0l-40.7,8
			c0,0-22.6,4.1-18.2,26.7c4.5,22.6,12.3,62.4,12.3,62.4L69,90.5C69,90.5,98.3,81.6,93.1,55z"/>
	</g>
</g>
<path class="st2" d="M75.4,10.3l-49.8,9.8c0,0-17.7,3.2-14.3,20.9S21,90,21,90l44-8.7c0,0,23-6.9,18.9-27.8S75.4,10.3,75.4,10.3z"/>
<path class="st1" d="M64.1,40.9L30,47.6c-1.4,0.3-2.7-0.6-3-2l-0.1-0.7c-0.3-1.4,0.6-2.7,2-3L63,35.2c1.4-0.3,2.7,0.6,3,2l0.1,0.7
	C66.4,39.2,65.5,40.6,64.1,40.9z"/>
<path class="st1" d="M67.7,59.4l-34.1,6.7c-1.4,0.3-2.7-0.6-3-2l-0.1-0.7c-0.3-1.4,0.6-2.7,2-3l34.1-6.7c1.4-0.3,2.7,0.6,3,2
	l0.1,0.7C70,57.8,69.1,59.1,67.7,59.4z"/>
<rect x="60.7" y="3" transform="matrix(0.9811 -0.1937 0.1937 0.9811 -0.6845 13.3561)" class="st2" width="14.4" height="14.4"/>
<rect x="21.3" y="83.9" transform="matrix(0.9811 -0.1937 0.1937 0.9811 -17.1071 7.2588)" class="st2" width="14.4" height="14.5"/>
</svg>
