<?xml version="1.0" encoding="utf-8"?>
<!-- Generator: Adobe Illustrator 22.0.0, SVG Export Plug-In . SVG Version: 6.00 Build 0)  -->
<svg version="1.1" id="Layer_1" xmlns="http://www.w3.org/2000/svg" xmlns:xlink="http://www.w3.org/1999/xlink" x="0px" y="0px"
	 viewBox="0 0 856.8 473" style="enable-background:new 0 0 856.8 473;" xml:space="preserve">
<style type="text/css">
	.st0{fill:#4275BA;}
	.st1{fill:#A3C439;}
	.st2{fill:#FFFFFF;}
</style>
<g>
	<path class="st0" d="M35.7,387.1l-3.4,9.8c-7.6-1.6-11.3,1.5-11.3,9.4v9.1h12.3v8.9H21v47.1H6.7v-47.1H0v-8.9h6.7v-10.5
		c0-5.3,1.7-10,5-13.9s7.9-5.9,13.7-5.9C28.9,385.1,32.3,385.8,35.7,387.1z"/>
	<path class="st0" d="M90.8,468.7c-4.9,2.9-10.3,4.3-16.2,4.3c-5.8,0-11.2-1.4-16.2-4.3c-4.9-2.9-8.8-6.7-11.7-11.7
		c-2.9-4.9-4.3-10.3-4.3-16.1v-25.7h14.3v28c0,4.9,1.7,9.1,5.2,12.5c3.4,3.4,7.6,5.2,12.5,5.2s9.1-1.7,12.5-5.2
		c3.4-3.4,5.2-7.6,5.2-12.5v-28h14.6v25.7c0,5.8-1.4,11.2-4.3,16.1C99.6,461.9,95.7,465.8,90.8,468.7z"/>
	<path class="st0" d="M127.8,386.2v85.2h-14.3v-85.2H127.8z"/>
	<path class="st0" d="M148.8,386.2v85.2h-14.3v-85.2H148.8z"/>
	<path class="st1" d="M191.2,387.1l-3.4,9.8c-7.6-1.6-11.3,1.5-11.3,9.4v9.1h12.3v8.9h-12.3v47.1h-14.3v-47.1h-6.7v-8.9h6.7v-10.5
		c0-5.3,1.7-10,5-13.9s7.9-5.9,13.7-5.9C184.4,385.1,187.8,385.8,191.2,387.1z"/>
	<path class="st1" d="M259,428.4c3.2,4.6,4.8,9.5,4.8,14.9v28.1h-14.3v-5.5c-2.6,2.1-5.9,3.9-9.7,5.2c-3.9,1.3-7.7,1.9-11.6,1.9
		c-10.2,0-18.6-2.9-25.3-8.6c-6.7-5.7-10.1-12.7-10.3-21.1c-0.2-5.4,1.4-10.3,4.6-14.9c3.2-4.6,7.5-8.2,13.1-10.8
		c5.5-2.7,11.5-4,18-4s12.4,1.3,17.9,4C251.5,420.2,255.8,423.8,259,428.4z M212.9,430.7c-4.2,3.5-6.3,7.7-6.1,12.6
		c0.1,4.9,2.3,9.1,6.4,12.6s9.1,5.2,15,5.2s11-1.7,15.3-5.2c4.2-3.5,6.3-7.7,6.1-12.5c-0.1-4.9-2.2-9.1-6.3-12.6
		c-4.1-3.5-9.1-5.2-15-5.2C222.2,425.5,217.2,427.2,212.9,430.7z"/>
	<path class="st1" d="M325.3,418c5.8,3,10.2,6.8,13,11.6l-13.2,4.7c-1.8-2.7-4.4-4.9-7.8-6.5c-3.4-1.6-7.1-2.4-11-2.4
		c-5.9,0-10.9,1.7-15,5.2s-6.2,7.7-6.4,12.6c-0.1,4.8,1.9,9,6.1,12.5c4.2,3.5,9.3,5.2,15.2,5.2c3.9,0,7.4-0.8,10.5-2.4
		c3.2-1.6,5.7-3.8,7.7-6.5l13.5,4.1c-3.1,5.1-7.4,9.2-13,12.2s-11.9,4.5-18.8,4.5c-6.5,0-12.5-1.3-18-3.9
		c-5.5-2.6-9.9-6.2-13.1-10.8c-3.2-4.6-4.7-9.5-4.6-14.9c0.1-4.1,1.1-7.9,3-11.6c1.9-3.6,4.4-6.8,7.6-9.4c3.1-2.7,6.9-4.8,11.3-6.3
		c4.4-1.6,8.9-2.4,13.8-2.4C313.2,413.6,319.5,415.1,325.3,418z"/>
	<path class="st1" d="M370.5,473c-5.8,0-10.3-2-13.7-5.9c-3.3-3.9-5-8.5-5-13.9v-29h-6.7v-8.9h6.7v-17.9h14.3v17.9h12.3v8.9h-12.3
		v27.6c0,7.8,3.8,10.9,11.3,9.4l3.4,9.8C377.4,472.3,374,473,370.5,473z"/>
	<path class="st1" d="M435.9,468.7c-4.9,2.9-10.3,4.3-16.2,4.3s-11.2-1.4-16.2-4.3c-4.9-2.9-8.8-6.7-11.7-11.7
		c-2.9-4.9-4.3-10.3-4.3-16.1v-25.7h14.3v28c0,4.9,1.7,9.1,5.2,12.5c3.4,3.4,7.6,5.2,12.5,5.2s9.1-1.7,12.5-5.2
		c3.4-3.4,5.2-7.6,5.2-12.5v-28h14.5v25.7c0,5.8-1.4,11.2-4.3,16.1C444.7,461.9,440.8,465.8,435.9,468.7z"/>
	<path class="st1" d="M495.9,427.3c-1.7-0.5-3.4-0.8-5.3-0.8c-11.8,0-17.7,5.9-17.7,17.7v27.1h-14.3v-25.6
		c0-21.4,10.7-32.1,32.2-32.1c1.7,0,3.4,0.1,5.1,0.4V427.3z"/>
	<path class="st1" d="M566,428.4c3.2,4.6,4.8,9.5,4.8,14.9v28.1h-14.3v-5.5c-2.6,2.1-5.9,3.9-9.7,5.2c-3.9,1.3-7.7,1.9-11.6,1.9
		c-10.2,0-18.6-2.9-25.3-8.6c-6.7-5.7-10.1-12.7-10.3-21.1c-0.2-5.4,1.4-10.3,4.6-14.9c3.2-4.6,7.5-8.2,13.1-10.8
		c5.5-2.7,11.5-4,18-4s12.4,1.3,17.9,4C558.5,420.2,562.8,423.8,566,428.4z M519.9,430.7c-4.2,3.5-6.3,7.7-6.1,12.6
		c0.1,4.9,2.3,9.1,6.4,12.6c4.1,3.5,9.1,5.2,15,5.2s11-1.7,15.3-5.2c4.2-3.5,6.3-7.7,6.1-12.5c-0.1-4.9-2.2-9.1-6.3-12.6
		s-9.1-5.2-15-5.2C529.2,425.5,524.1,427.2,519.9,430.7z"/>
	<path class="st0" d="M592.4,465.5c0,2-0.7,3.7-2.2,5.2s-3.2,2.2-5.2,2.2s-3.8-0.7-5.2-2.2c-1.5-1.5-2.2-3.2-2.2-5.2
		s0.7-3.8,2.2-5.2c1.5-1.5,3.2-2.2,5.2-2.2s3.8,0.7,5.2,2.2C591.6,461.7,592.4,463.5,592.4,465.5z"/>
	<path class="st0" d="M653.9,418c5.8,3,10.2,6.8,13,11.6l-13.2,4.7c-1.8-2.7-4.4-4.9-7.8-6.5c-3.4-1.6-7.1-2.4-11-2.4
		c-5.9,0-10.9,1.7-15,5.2s-6.2,7.7-6.4,12.6c-0.1,4.8,1.9,9,6.1,12.5s9.3,5.2,15.2,5.2c3.9,0,7.4-0.8,10.5-2.4
		c3.2-1.6,5.7-3.8,7.7-6.5l13.5,4.1c-3.1,5.1-7.4,9.2-13,12.2s-11.9,4.5-18.8,4.5c-6.5,0-12.5-1.3-18-3.9
		c-5.5-2.6-9.9-6.2-13.1-10.8s-4.7-9.5-4.6-14.9c0.1-4.1,1.1-7.9,3-11.6c1.9-3.6,4.4-6.8,7.6-9.4c3.1-2.7,6.9-4.8,11.3-6.3
		c4.4-1.6,8.9-2.4,13.8-2.4C641.8,413.6,648.1,415.1,653.9,418z"/>
	<path class="st0" d="M727.4,417.6c5.5,2.6,9.9,6.2,13.1,10.8s4.7,9.5,4.6,14.9c-0.2,4-1.2,7.9-3,11.5c-1.8,3.6-4.4,6.8-7.6,9.5
		s-6.9,4.8-11.3,6.3c-4.3,1.6-8.9,2.3-13.8,2.3c-6.4,0-12.4-1.3-17.9-3.9c-5.5-2.6-9.9-6.2-13.1-10.8c-3.2-4.6-4.7-9.5-4.6-14.9
		c0.2-4.1,1.2-7.9,3-11.6c1.9-3.6,4.4-6.8,7.5-9.4c3.1-2.7,6.9-4.8,11.3-6.3c4.4-1.6,8.9-2.3,13.8-2.3
		C715.9,413.6,721.9,415,727.4,417.6z M694.5,430.7c-4.1,3.5-6.2,7.7-6.3,12.6c-0.2,4.9,1.9,9.1,6.1,12.6c4.2,3.5,9.3,5.2,15.2,5.2
		s10.9-1.7,15-5.2s6.2-7.7,6.3-12.6c0.2-4.9-1.9-9.1-6.1-12.6s-9.3-5.2-15.3-5.2C703.6,425.5,698.6,427.2,694.5,430.7z"/>
	<path class="st0" d="M794.4,417.2c4.2,2.4,7.5,5.6,10.1,9.8c2.5-4.1,5.9-7.4,10-9.8c4.2-2.4,8.8-3.6,13.9-3.6
		c5.4,0,10.3,1.3,14.6,4c4.4,2.7,7.8,6.3,10.2,10.8c2.4,4.5,3.6,9.5,3.6,15v28h-14.6v-30.5c0-4.3-1.5-7.9-4.5-10.9
		s-6.6-4.5-10.9-4.5s-7.9,1.5-10.9,4.5s-4.5,6.6-4.5,10.9v30.5h-14.5v-30.5c0-4.3-1.5-7.9-4.5-10.9s-6.6-4.5-10.9-4.5
		s-7.9,1.5-10.8,4.5c-3,3-4.5,6.6-4.5,10.9v30.5h-14.3v-28c0-5.5,1.2-10.4,3.6-15c2.4-4.5,5.8-8.1,10.2-10.8s9.3-4,14.6-4
		C785.6,413.6,790.2,414.8,794.4,417.2z"/>
</g>
<g>
	<g>
		<path class="st0" d="M588.9,186.8C571.1,96.6,552,0.2,552,0.2l-29,5.7c0,0.1-0.1,0.1-0.1,0.2c0,0-0.1,0-0.1,0c0,0.1,0,0.3,0,0.4
			c0,0.1-1.2,0-1.3,0c-0.2,0-0.5,0-0.7,0c0.1,0.3,0.2,0.6,0.3,1.2c0-0.1-1.3-0.1-2.4,0c-0.1,0.1-0.2,0.3-0.3,0.4
			c-0.5,0.6-0.8,0.8-1.3,0.9c0.1,0,0.2,0,0.2,0h-0.5c-0.2,0-0.5,0-0.8,0c-1.6,0-3.2,0-4.7,0c0,0,0,0-0.1,0c0.2,0,0.3,0.1,0.3,0.1
			c0.6,1.2,0.1,1.5-1,1.6c0,0,0,0,0,0h-0.1c0,0-0.1,0-0.1,0c-1.8,0.2-3.7,0-5.5,0c-0.6,0-1.8,0.2-2.7,0.2c-0.4,0.2-0.9,0.3-1.4,0.4
			c0.1,0,0.1,0,0.2,0.1l-0.8,0c-0.3,0-0.6,0-1,0c-0.1,0-0.2,0-0.3,0c-0.6,0.3-1.2,0.7-1.8,0.8c0,0,0,0,0,0h-0.1c0,0,0,0,0,0
			c-0.8,0.2-1.6,0.1-2.5,0.1c-0.2,0.3-0.4,0.5-0.6,0.6c-0.1,0.1-0.2,0.1-0.4,0.2c0,0,0,0,0,0h-0.1c-0.7,0.2-1.5,0-2.1,0
			c-1.3,0-2.6,0-3.9,0c0,0.5,0,1-0.1,1.6c-0.1,1-0.4,2-0.5,3c0,0.4-9-0.3-9,0c0.1-0.7,0.2-1.4,0.3-2c-0.5,0-1,0-1.5,0
			c0.2,0-1.3,0-1.3,0c0-0.1,0.1-0.3,0.1-0.4c-0.1,0-0.2,0-0.2,0c0,0,0,0,0,0c0,0,0,0,0,0c0,0,0,0,0-0.1c0,0,0,0,0,0L336.8,42.7
			c0,0-76.7,13.9-61.6,90.4c15.1,76.5,41.8,211.5,41.8,211.5L507.3,307C507.3,307,606.7,277,588.9,186.8z"/>
	</g>
</g>
<path class="st2" d="M528.9,35.1L360,68.5c0,0-60.2,10.9-48.4,70.9s32.8,166,32.8,166l149.4-29.5c0,0,78-23.5,64-94.3
	S528.9,35.1,528.9,35.1z"/>
<path class="st1" d="M490.6,138.8L375,161.6c-4.7,0.9-9.3-2.1-10.2-6.8l-0.4-2.3c-0.9-4.7,2.1-9.3,6.8-10.2l115.6-22.8
	c4.7-0.9,9.3,2.1,10.2,6.8l0.4,2.3C498.3,133.3,495.3,137.8,490.6,138.8z"/>
<path class="st1" d="M503,201.7l-115.6,22.8c-4.7,0.9-9.3-2.1-10.2-6.8l-0.4-2.3c-0.9-4.7,2.1-9.3,6.8-10.2l115.6-22.8
	c4.7-0.9,9.3,2.1,10.2,6.8l0.4,2.3C510.8,196.2,507.7,200.7,503,201.7z"/>
<rect x="479.2" y="10.2" transform="matrix(0.9811 -0.1937 0.1937 0.9811 2.8225 98.225)" class="st2" width="49" height="49"/>
<rect x="345.6" y="284.6" transform="matrix(0.9811 -0.1937 0.1937 0.9811 -52.8773 77.545)" class="st2" width="49" height="49.2"/>
</svg>
