<?xml version="1.0" encoding="UTF-8" standalone="no"?>
<svg
   xmlns:dc="http://purl.org/dc/elements/1.1/"
   xmlns:cc="http://creativecommons.org/ns#"
   xmlns:rdf="http://www.w3.org/1999/02/22-rdf-syntax-ns#"
   xmlns:svg="http://www.w3.org/2000/svg"
   xmlns="http://www.w3.org/2000/svg"
   xml:space="preserve"
   style="enable-background:new 0 0 1366 768;"
   viewBox="0 0 1366 768"
   y="0px"
   x="0px"
   id="Layer_1"
   version="1.1"><metadata
     id="metadata55"><rdf:RDF><cc:Work
         rdf:about=""><dc:format>image/svg+xml</dc:format><dc:type
           rdf:resource="http://purl.org/dc/dcmitype/StillImage" /></cc:Work></rdf:RDF></metadata><defs
     id="defs53" /><style
     id="style2"
     type="text/css">
	.st0{fill:#4275BA;}
	.st1{fill:#8EFD3C;}
	.st2{fill:#FFFFFF;}
</style><g
     id="g34"><path
       id="path4"
       d="M393.5,361.4l-3.4,9.8c-7.6-1.6-11.3,1.5-11.3,9.4v9.1h12.3v8.9h-12.3v47.1h-14.3v-47.1h-6.7v-8.9h6.7v-10.5   c0-5.3,1.7-10,5-13.9c3.3-3.9,7.9-5.9,13.7-5.9C386.7,359.4,390.1,360.1,393.5,361.4z"
       class="st0" /><path
       id="path6"
       d="M448.6,443c-4.9,2.9-10.3,4.3-16.2,4.3c-5.8,0-11.2-1.4-16.2-4.3c-4.9-2.9-8.8-6.7-11.7-11.7   c-2.9-4.9-4.3-10.3-4.3-16.1v-25.7h14.3v28c0,4.9,1.7,9.1,5.2,12.5c3.4,3.4,7.6,5.2,12.5,5.2c4.9,0,9.1-1.7,12.5-5.2   c3.4-3.4,5.2-7.6,5.2-12.5v-28h14.6v25.7c0,5.8-1.4,11.2-4.3,16.1C457.4,436.2,453.5,440.1,448.6,443z"
       class="st0" /><path
       id="path8"
       d="M485.6,360.5v85.2h-14.3v-85.2H485.6z"
       class="st0" /><path
       id="path10"
       d="M506.6,360.5v85.2h-14.3v-85.2H506.6z"
       class="st0" /><path
       id="path12"
       d="M549,361.4l-3.4,9.8c-7.6-1.6-11.3,1.5-11.3,9.4v9.1h12.3v8.9h-12.3v47.1H520v-47.1h-6.7v-8.9h6.7v-10.5   c0-5.3,1.7-10,5-13.9c3.3-3.9,7.9-5.9,13.7-5.9C542.2,359.4,545.6,360.1,549,361.4z"
       class="st1" /><path
       id="path14"
       d="M616.8,402.7c3.2,4.6,4.8,9.5,4.8,14.9v28.1h-14.3v-5.5c-2.6,2.1-5.9,3.9-9.7,5.2c-3.9,1.3-7.7,1.9-11.6,1.9   c-10.2,0-18.6-2.9-25.3-8.6c-6.7-5.7-10.1-12.7-10.3-21.1c-0.2-5.4,1.4-10.3,4.6-14.9c3.2-4.6,7.5-8.2,13.1-10.8   c5.5-2.7,11.5-4,18-4c6.5,0,12.4,1.3,17.9,4C609.3,394.5,613.6,398.1,616.8,402.7z M570.7,405c-4.2,3.5-6.3,7.7-6.1,12.6   c0.1,4.9,2.3,9.1,6.4,12.6c4.1,3.5,9.1,5.2,15,5.2c5.9,0,11-1.7,15.3-5.2c4.2-3.5,6.3-7.7,6.1-12.5c-0.1-4.9-2.2-9.1-6.3-12.6   c-4.1-3.5-9.1-5.2-15-5.2C580,399.8,575,401.5,570.7,405z"
       class="st1" /><path
       id="path16"
       d="M683.1,392.3c5.8,3,10.2,6.8,13,11.6l-13.2,4.7c-1.8-2.7-4.4-4.9-7.8-6.5c-3.4-1.6-7.1-2.4-11-2.4   c-5.9,0-10.9,1.7-15,5.2c-4.1,3.5-6.2,7.7-6.4,12.6c-0.1,4.8,1.9,9,6.1,12.5c4.2,3.5,9.3,5.2,15.2,5.2c3.9,0,7.4-0.8,10.5-2.4   c3.2-1.6,5.7-3.8,7.7-6.5l13.5,4.1c-3.1,5.1-7.4,9.2-13,12.2c-5.6,3-11.9,4.5-18.8,4.5c-6.5,0-12.5-1.3-18-3.9   c-5.5-2.6-9.9-6.2-13.1-10.8c-3.2-4.6-4.7-9.5-4.6-14.9c0.1-4.1,1.1-7.9,3-11.6c1.9-3.6,4.4-6.8,7.6-9.4c3.1-2.7,6.9-4.8,11.3-6.3   c4.4-1.6,8.9-2.4,13.8-2.4C671,387.9,677.3,389.4,683.1,392.3z"
       class="st1" /><path
       id="path18"
       d="M728.3,447.3c-5.8,0-10.3-2-13.7-5.9c-3.3-3.9-5-8.5-5-13.9v-29h-6.7v-8.9h6.7v-17.9h14.3v17.9h12.3v8.9h-12.3   v27.6c0,7.8,3.8,10.9,11.3,9.4l3.4,9.8C735.2,446.6,731.8,447.3,728.3,447.3z"
       class="st1" /><path
       id="path20"
       d="M793.7,443c-4.9,2.9-10.3,4.3-16.2,4.3s-11.2-1.4-16.2-4.3c-4.9-2.9-8.8-6.7-11.7-11.7   c-2.9-4.9-4.3-10.3-4.3-16.1v-25.7h14.3v28c0,4.9,1.7,9.1,5.2,12.5c3.4,3.4,7.6,5.2,12.5,5.2s9.1-1.7,12.5-5.2   c3.4-3.4,5.2-7.6,5.2-12.5v-28h14.5v25.7c0,5.8-1.4,11.2-4.3,16.1C802.5,436.2,798.6,440.1,793.7,443z"
       class="st1" /><path
       id="path22"
       d="M853.7,401.6c-1.7-0.5-3.4-0.8-5.3-0.8c-11.8,0-17.7,5.9-17.7,17.7v27.1h-14.3V420c0-21.4,10.7-32.1,32.2-32.1   c1.7,0,3.4,0.1,5.1,0.4V401.6z"
       class="st1" /><path
       id="path24"
       d="M923.8,402.7c3.2,4.6,4.8,9.5,4.8,14.9v28.1h-14.3v-5.5c-2.6,2.1-5.9,3.9-9.7,5.2c-3.9,1.3-7.7,1.9-11.6,1.9   c-10.2,0-18.6-2.9-25.3-8.6c-6.7-5.7-10.1-12.7-10.3-21.1c-0.2-5.4,1.4-10.3,4.6-14.9c3.2-4.6,7.5-8.2,13.1-10.8   c5.5-2.7,11.5-4,18-4c6.5,0,12.4,1.3,17.9,4C916.3,394.5,920.6,398.1,923.8,402.7z M877.7,405c-4.2,3.5-6.3,7.7-6.1,12.6   c0.1,4.9,2.3,9.1,6.4,12.6c4.1,3.5,9.1,5.2,15,5.2c5.9,0,11-1.7,15.3-5.2c4.2-3.5,6.3-7.7,6.1-12.5c-0.1-4.9-2.2-9.1-6.3-12.6   s-9.1-5.2-15-5.2C887,399.8,881.9,401.5,877.7,405z"
       class="st1" /><path
       id="path26"
       d="M950.2,439.8c0,2-0.7,3.7-2.2,5.2c-1.5,1.5-3.2,2.2-5.2,2.2c-2,0-3.8-0.7-5.2-2.2c-1.5-1.5-2.2-3.2-2.2-5.2   c0-2,0.7-3.8,2.2-5.2c1.5-1.5,3.2-2.2,5.2-2.2c2,0,3.8,0.7,5.2,2.2C949.4,436,950.2,437.8,950.2,439.8z"
       class="st0" /><path
       id="path28"
       d="M1011.7,392.3c5.8,3,10.2,6.8,13,11.6l-13.2,4.7c-1.8-2.7-4.4-4.9-7.8-6.5c-3.4-1.6-7.1-2.4-11-2.4   c-5.9,0-10.9,1.7-15,5.2c-4.1,3.5-6.2,7.7-6.4,12.6c-0.1,4.8,1.9,9,6.1,12.5c4.2,3.5,9.3,5.2,15.2,5.2c3.9,0,7.4-0.8,10.5-2.4   c3.2-1.6,5.7-3.8,7.7-6.5l13.5,4.1c-3.1,5.1-7.4,9.2-13,12.2c-5.6,3-11.9,4.5-18.8,4.5c-6.5,0-12.5-1.3-18-3.9   c-5.5-2.6-9.9-6.2-13.1-10.8c-3.2-4.6-4.7-9.5-4.6-14.9c0.1-4.1,1.1-7.9,3-11.6c1.9-3.6,4.4-6.8,7.6-9.4c3.1-2.7,6.9-4.8,11.3-6.3   c4.4-1.6,8.9-2.4,13.8-2.4C999.6,387.9,1005.9,389.4,1011.7,392.3z"
       class="st0" /><path
       id="path30"
       d="M1085.2,391.9c5.5,2.6,9.9,6.2,13.1,10.8c3.2,4.6,4.7,9.5,4.6,14.9c-0.2,4-1.2,7.9-3,11.5s-4.4,6.8-7.6,9.5   s-6.9,4.8-11.3,6.3c-4.3,1.6-8.9,2.3-13.8,2.3c-6.4,0-12.4-1.3-17.9-3.9c-5.5-2.6-9.9-6.2-13.1-10.8c-3.2-4.6-4.7-9.5-4.6-14.9   c0.2-4.1,1.2-7.9,3-11.6c1.9-3.6,4.4-6.8,7.5-9.4c3.1-2.7,6.9-4.8,11.3-6.3c4.4-1.6,8.9-2.3,13.8-2.3   C1073.7,387.9,1079.7,389.3,1085.2,391.9z M1052.3,405c-4.1,3.5-6.2,7.7-6.3,12.6c-0.2,4.9,1.9,9.1,6.1,12.6   c4.2,3.5,9.3,5.2,15.2,5.2c5.9,0,10.9-1.7,15-5.2c4.1-3.5,6.2-7.7,6.3-12.6c0.2-4.9-1.9-9.1-6.1-12.6c-4.2-3.5-9.3-5.2-15.3-5.2   C1061.4,399.8,1056.4,401.5,1052.3,405z"
       class="st0" /><path
       id="path32"
       d="M1152.2,391.5c4.2,2.4,7.5,5.6,10.1,9.8c2.5-4.1,5.9-7.4,10-9.8c4.2-2.4,8.8-3.6,13.9-3.6   c5.4,0,10.3,1.3,14.6,4c4.4,2.7,7.8,6.3,10.2,10.8c2.4,4.5,3.6,9.5,3.6,15v28h-14.6v-30.5c0-4.3-1.5-7.9-4.5-10.9   c-3-3-6.6-4.5-10.9-4.5s-7.9,1.5-10.9,4.5c-3,3-4.5,6.6-4.5,10.9v30.5h-14.5v-30.5c0-4.3-1.5-7.9-4.5-10.9c-3-3-6.6-4.5-10.9-4.5   s-7.9,1.5-10.8,4.5c-3,3-4.5,6.6-4.5,10.9v30.5h-14.3v-28c0-5.5,1.2-10.4,3.6-15c2.4-4.5,5.8-8.1,10.2-10.8c4.4-2.7,9.3-4,14.6-4   C1143.4,387.9,1148,389.1,1152.2,391.5z"
       class="st0" /></g><g
     id="g38"><path
       id="path36"
       d="M314.4,351.8l-64.9,12.8c0,0-23.1,4.2-18.6,27.3c4.6,23.1,12.6,63.8,12.6,63.8l57.4-11.3c0,0,30-9,24.6-36.2   S314.4,351.8,314.4,351.8z"
       class="st0" /></g><path
     id="path40"
     d="M307.4,362.3l-50.9,10.1c0,0-18.2,3.3-14.6,21.4c3.6,18.1,9.9,50,9.9,50l45-8.9c0,0,23.5-7.1,19.3-28.4  S307.4,362.3,307.4,362.3z"
     class="st2" /><path
     id="path42"
     d="M295.8,393.5l-34.8,6.9c-1.4,0.3-2.8-0.6-3.1-2.1l-0.1-0.7c-0.3-1.4,0.6-2.8,2.1-3.1l34.8-6.9  c1.4-0.3,2.8,0.6,3.1,2.1l0.1,0.7C298.2,391.9,297.2,393.3,295.8,393.5z"
     class="st1" /><path
     id="path44"
     d="M299.6,412.5l-34.8,6.9c-1.4,0.3-2.8-0.6-3.1-2.1l-0.1-0.7c-0.3-1.4,0.6-2.8,2.1-3.1l34.8-6.9  c1.4-0.3,2.8,0.6,3.1,2.1l0.1,0.7C301.9,410.9,301,412.2,299.6,412.5z"
     class="st1" /><rect
     id="rect46"
     height="14.8"
     width="14.8"
     class="st2"
     transform="matrix(0.9811 -0.1937 0.1937 0.9811 -64.1449 64.8453)"
     y="353"
     x="292.1" /><rect
     id="rect48"
     height="14.8"
     width="14.8"
     class="st2"
     transform="matrix(0.9811 -0.1937 0.1937 0.9811 -81.281 58.6984)"
     y="437.5"
     x="252.1" /></svg>