<svg id="Layer_1" data-name="Layer 1" xmlns="http://www.w3.org/2000/svg" viewBox="0 0 856.8 87.9"><defs><style>.cls-1{fill:#4275ba;}.cls-2{fill:#a3c439;}</style></defs><title>nombre_full</title><path class="cls-1" d="M35.7,6.6l-3.4,9.8C24.7,14.8,21,17.9,21,25.8v9.1H33.3v8.9H21V90.9H6.7V43.8H0V34.9H6.7V24.4a21,21,0,0,1,5-13.9C15,6.6,19.6,4.6,25.4,4.6A28.57,28.57,0,0,1,35.7,6.6Z" transform="translate(0 -4.6)"/><path class="cls-1" d="M90.8,88.2a31.18,31.18,0,0,1-16.2,4.3,31.69,31.69,0,0,1-16.2-4.3A32,32,0,0,1,46.7,76.5a31.08,31.08,0,0,1-4.3-16.1V34.7H56.7v28a16.76,16.76,0,0,0,5.2,12.5,17.14,17.14,0,0,0,12.5,5.2,16.76,16.76,0,0,0,12.5-5.2,17.14,17.14,0,0,0,5.2-12.5v-28h14.6V60.4a31.08,31.08,0,0,1-4.3,16.1A31.75,31.75,0,0,1,90.8,88.2Z" transform="translate(0 -4.6)"/><path class="cls-1" d="M127.8,5.7V90.9H113.5V5.7Z" transform="translate(0 -4.6)"/><path class="cls-1" d="M148.8,5.7V90.9H134.5V5.7Z" transform="translate(0 -4.6)"/><path class="cls-2" d="M191.2,6.6l-3.4,9.8c-7.6-1.6-11.3,1.5-11.3,9.4v9.1h12.3v8.9H176.5V90.9H162.2V43.8h-6.7V34.9h6.7V24.4a21,21,0,0,1,5-13.9c3.3-3.9,7.9-5.9,13.7-5.9A28.57,28.57,0,0,1,191.2,6.6Z" transform="translate(0 -4.6)"/><path class="cls-2" d="M259,47.9a25.43,25.43,0,0,1,4.8,14.9V90.9H249.5V85.4a31.91,31.91,0,0,1-9.7,5.2,36.13,36.13,0,0,1-11.6,1.9c-10.2,0-18.6-2.9-25.3-8.6s-10.1-12.7-10.3-21.1a23.91,23.91,0,0,1,4.6-14.9,31.85,31.85,0,0,1,13.1-10.8,40.25,40.25,0,0,1,18-4,39.83,39.83,0,0,1,17.9,4A33,33,0,0,1,259,47.9Zm-46.1,2.3c-4.2,3.5-6.3,7.7-6.1,12.6s2.3,9.1,6.4,12.6a22.28,22.28,0,0,0,15,5.2,23.45,23.45,0,0,0,15.3-5.2c4.2-3.5,6.3-7.7,6.1-12.5s-2.2-9.1-6.3-12.6a22.28,22.28,0,0,0-15-5.2A22.75,22.75,0,0,0,212.9,50.2Z" transform="translate(0 -4.6)"/><path class="cls-2" d="M325.3,37.5c5.8,3,10.2,6.8,13,11.6l-13.2,4.7a18.71,18.71,0,0,0-7.8-6.5,25.62,25.62,0,0,0-11-2.4,22.28,22.28,0,0,0-15,5.2,17,17,0,0,0-6.4,12.6c-.1,4.8,1.9,9,6.1,12.5a23,23,0,0,0,15.2,5.2A22.56,22.56,0,0,0,316.7,78a21.26,21.26,0,0,0,7.7-6.5l13.5,4.1a33.28,33.28,0,0,1-13,12.2,39.27,39.27,0,0,1-18.8,4.5,41.58,41.58,0,0,1-18-3.9A32.51,32.51,0,0,1,275,77.6a24.55,24.55,0,0,1-4.6-14.9,26.31,26.31,0,0,1,3-11.6,30,30,0,0,1,7.6-9.4,33.47,33.47,0,0,1,11.3-6.3A39.66,39.66,0,0,1,306.1,33,43.43,43.43,0,0,1,325.3,37.5Z" transform="translate(0 -4.6)"/><path class="cls-2" d="M370.5,92.5c-5.8,0-10.3-2-13.7-5.9a20.81,20.81,0,0,1-5-13.9v-29h-6.7V34.8h6.7V16.9h14.3V34.8h12.3v8.9H366.1V71.3c0,7.8,3.8,10.9,11.3,9.4l3.4,9.8A28.57,28.57,0,0,1,370.5,92.5Z" transform="translate(0 -4.6)"/><path class="cls-2" d="M435.9,88.2a32.67,32.67,0,0,1-32.4,0,32,32,0,0,1-11.7-11.7,31.08,31.08,0,0,1-4.3-16.1V34.7h14.3v28A16.76,16.76,0,0,0,407,75.2a17.14,17.14,0,0,0,12.5,5.2A16.76,16.76,0,0,0,432,75.2a17.14,17.14,0,0,0,5.2-12.5v-28h14.5V60.4a31.08,31.08,0,0,1-4.3,16.1A30.75,30.75,0,0,1,435.9,88.2Z" transform="translate(0 -4.6)"/><path class="cls-2" d="M495.9,46.8a18.36,18.36,0,0,0-5.3-.8q-17.7,0-17.7,17.7V90.8H458.6V65.2q0-32.1,32.2-32.1a29.22,29.22,0,0,1,5.1.4Z" transform="translate(0 -4.6)"/><path class="cls-2" d="M566,47.9a25.43,25.43,0,0,1,4.8,14.9V90.9H556.5V85.4a31.91,31.91,0,0,1-9.7,5.2,36.13,36.13,0,0,1-11.6,1.9c-10.2,0-18.6-2.9-25.3-8.6s-10.1-12.7-10.3-21.1a23.91,23.91,0,0,1,4.6-14.9,31.85,31.85,0,0,1,13.1-10.8,40.25,40.25,0,0,1,18-4,39.83,39.83,0,0,1,17.9,4A33,33,0,0,1,566,47.9Zm-46.1,2.3c-4.2,3.5-6.3,7.7-6.1,12.6s2.3,9.1,6.4,12.6a22.28,22.28,0,0,0,15,5.2,23.45,23.45,0,0,0,15.3-5.2c4.2-3.5,6.3-7.7,6.1-12.5s-2.2-9.1-6.3-12.6a22.28,22.28,0,0,0-15-5.2A22.58,22.58,0,0,0,519.9,50.2Z" transform="translate(0 -4.6)"/><path class="cls-1" d="M592.4,85a7.51,7.51,0,0,1-7.4,7.4,6.88,6.88,0,0,1-5.2-2.2,7,7,0,0,1-2.2-5.2,6.88,6.88,0,0,1,2.2-5.2,7,7,0,0,1,5.2-2.2,6.88,6.88,0,0,1,5.2,2.2A7.26,7.26,0,0,1,592.4,85Z" transform="translate(0 -4.6)"/><path class="cls-1" d="M653.9,37.5c5.8,3,10.2,6.8,13,11.6l-13.2,4.7a18.71,18.71,0,0,0-7.8-6.5,25.62,25.62,0,0,0-11-2.4,22.28,22.28,0,0,0-15,5.2,17,17,0,0,0-6.4,12.6c-.1,4.8,1.9,9,6.1,12.5a23,23,0,0,0,15.2,5.2A22.56,22.56,0,0,0,645.3,78a21.26,21.26,0,0,0,7.7-6.5l13.5,4.1a33.28,33.28,0,0,1-13,12.2,39.27,39.27,0,0,1-18.8,4.5,41.58,41.58,0,0,1-18-3.9,32.51,32.51,0,0,1-13.1-10.8A24.55,24.55,0,0,1,599,62.7a26.31,26.31,0,0,1,3-11.6,30,30,0,0,1,7.6-9.4,33.47,33.47,0,0,1,11.3-6.3A39.66,39.66,0,0,1,634.7,33,43.43,43.43,0,0,1,653.9,37.5Z" transform="translate(0 -4.6)"/><path class="cls-1" d="M727.4,37.1a32.51,32.51,0,0,1,13.1,10.8,24.55,24.55,0,0,1,4.6,14.9,28.86,28.86,0,0,1-3,11.5,30.11,30.11,0,0,1-7.6,9.5,34.46,34.46,0,0,1-11.3,6.3,39.21,39.21,0,0,1-13.8,2.3,41.45,41.45,0,0,1-17.9-3.9,32.51,32.51,0,0,1-13.1-10.8,24.55,24.55,0,0,1-4.6-14.9,29.33,29.33,0,0,1,3-11.6,31.16,31.16,0,0,1,7.5-9.4,33.47,33.47,0,0,1,11.3-6.3,39.6,39.6,0,0,1,13.8-2.3A40.19,40.19,0,0,1,727.4,37.1ZM694.5,50.2q-6.15,5.25-6.3,12.6c-.2,4.9,1.9,9.1,6.1,12.6a23,23,0,0,0,15.2,5.2,22.28,22.28,0,0,0,15-5.2q6.15-5.25,6.3-12.6c.2-4.9-1.9-9.1-6.1-12.6A23.07,23.07,0,0,0,709.4,45,22.2,22.2,0,0,0,694.5,50.2Z" transform="translate(0 -4.6)"/><path class="cls-1" d="M794.4,36.7a27.89,27.89,0,0,1,10.1,9.8,28.43,28.43,0,0,1,10-9.8,27.43,27.43,0,0,1,13.9-3.6,26.92,26.92,0,0,1,14.6,4,27.85,27.85,0,0,1,10.2,10.8,31.37,31.37,0,0,1,3.6,15v28H842.2V60.4a15.4,15.4,0,1,0-30.8,0V90.9H796.9V60.4A15.36,15.36,0,0,0,781.5,45a14.41,14.41,0,0,0-10.8,4.5,14.79,14.79,0,0,0-4.5,10.9V90.9H751.9v-28a31.65,31.65,0,0,1,3.6-15,27.85,27.85,0,0,1,10.2-10.8,29,29,0,0,1,28.7-.4Z" transform="translate(0 -4.6)"/></svg>