<?xml version="1.0" encoding="utf-8"?>
<!-- Generator: Adobe Illustrator 22.0.0, SVG Export Plug-In . SVG Version: 6.00 Build 0)  -->
<svg version="1.1" id="Layer_1" xmlns="http://www.w3.org/2000/svg" xmlns:xlink="http://www.w3.org/1999/xlink" x="0px" y="0px"
	 viewBox="0 0 1366 768" style="enable-background:new 0 0 1366 768;" xml:space="preserve">
<style type="text/css">
	.st0{fill:#4275BA;}
	.st1{fill:#FFFFFF;}
	.st2{fill:#8EFD3C;}
</style>
<g>
	<path class="st0" d="M839,255.5c-16.9-85.3-34.9-176.6-34.9-176.6l-27.5,5.4c0,0.3-0.1,0.3-0.3,0.5c0,0-0.2,0.1-0.3,0.1
		c0,0.1,0,0.2,0,0.3c0,0-0.3,0.1-0.8,0.1c-0.1,0.2-0.3,0.4-0.6,0.4c-0.2,0-0.7,0-1.4,0l0,0c0,0.1-0.7,0.1-1.1,0
		c-0.1,0.5-0.3,1-0.5,1.4c-0.2,0.3-0.3,0.3-0.6,0.4c-0.5,0.2-1.6,0-2.1,0c-0.8,0-1.5,0-2.3,0c-1.1,0-2.2,0-3.4,0
		c-1.8,1.2-3.4,1.7-6,1.8c-2.8,0.1-5.6,0.3-8.3,1.3c-2,0.8-3.1,1.3-4.7,1.5l0,0h0.3h-0.1c0.3,0,0.7,0,1,0.1h-1.8
		c-0.8,0.1-1.5,0.1-2.3,0.1c0,0.3,0,0.6-0.1,0.8c0,0-0.4,0-0.8,0c0,0.1,0,0.3,0,0.4s-4.2,0-4.5,0s-4.5,0-4.5,0c0-0.2,0-0.3,0-0.5
		c-0.1,0-0.2,0-0.3,0H731l0,0l-130.8,25.8c0,0-72.6,13.1-58.3,85.5s39.5,200.1,39.5,200.1l32-6.3l0,0c0,0,0,0,0-0.1l0,0l0,0l0,0l0,0
		l0,0l0,0l0,0l0,0c0,0,0.1,0,0.3,0v0c0,0,0.1,0,0.4,0c-0.4-0.4-0.4-1.1,0.3-1.9c0.1-0.1,1.3-0.2,2.8-0.2v-0.1c0.4-0.7,3-0.3,5.3,0.1
		c0.3-0.2,0.7-0.3,1.1-0.4c1.1-0.3,2.4-0.2,3.6-0.3c0.5,0,1.1,0,1.6,0c1.3-1.4,4.2-2.7,5.4-2.9c1.9-0.4,4.1-0.5,6.1-0.4
		c0.9-0.3,1.9-0.5,3-0.6c0.9-0.1,1.9-0.1,2.9-0.2c-0.2-0.6,1.9,0,2.8-1.8c0.2-0.4,9,0,9,0l0,0c0.2,0,0.4,0,0.4,0c0,0.1,0,0.1,0,0.2
		c0.1,0,0.1,0,0.1,0l0,0c0.1,0,0.1,0,0.1,0l0,0l102.7-20.3C761.8,369.2,855.8,340.9,839,255.5z"/>
</g>
<path class="st1" d="M782.2,112l-159.8,31.6c0,0-57,10.3-45.8,67.1s31,157.1,31,157.1L749,339.9c0,0,73.8-22.3,60.6-89.2
	C796.3,183.6,782.2,112,782.2,112z"/>
<path class="st2" d="M746,210.1l-109.4,21.6c-4.4,0.9-8.8-2-9.6-6.5l-0.4-2.2c-0.9-4.4,2-8.8,6.5-9.6l109.4-21.6
	c4.4-0.9,8.8,2,9.6,6.5l0.4,2.2C753.3,204.9,750.4,209.2,746,210.1z"/>
<path class="st2" d="M757.7,269.6l-109.4,21.6c-4.4,0.9-8.8-2-9.6-6.5l-0.4-2.2c-0.9-4.4,2-8.8,6.5-9.6l109.4-21.6
	c4.4-0.9,8.8,2,9.6,6.5l0.4,2.2C765,264.4,762.1,268.7,757.7,269.6z"/>
<rect x="734.8" y="88.4" transform="matrix(0.9811 -0.1937 0.1937 0.9811 -6.7147 148.8738)" class="st1" width="46.3" height="40.7"/>
<path class="st1" d="M605.4,353.3L605.4,353.3c-0.2,0-0.4,0-0.4,0c0-0.1,0-0.1,0-0.2c-0.1,0-0.1,0-0.1,0l0,0c-0.1,0-0.1,0-0.1,0
	h-0.1l9,45.4l45.5-9l-9-45.4l0,0l0,0c0,0-0.1,0-0.4,0l-0.6,0.1c0.7,0.5,0.8,1.2,0,2.2c-0.1,0.1-1.3,0.2-2.8,0.2v0.1
	c-0.4,0.7-3,0.3-5.3-0.1c-0.3,0.2-0.7,0.3-1.1,0.4c-1.1,0.3-2.4,0.2-3.6,0.3c-0.5,0-1.1,0-1.6,0c-1.3,1.4-4.2,2.7-5.4,2.9
	c-1.9,0.4-4.1,0.5-6.1,0.4c-0.9,0.3-1.9,0.5-3,0.6c-0.9,0.1-1.9,0.1-2.9,0.2c0.2,0.6-1.9,0-2.8,1.8
	C614.2,353.7,605.4,353.3,605.4,353.3z"/>
<g>
	<path class="st0" d="M324.2,450.9l-5,14.4c-11.2-2.3-16.8,2.3-16.8,13.9v13.5h18.2v13.2h-18.2v69.8h-21.1v-69.8h-9.9v-13.2h9.9
		v-15.5c0-7.9,2.5-14.7,7.4-20.5s11.7-8.7,20.2-8.7C314.1,448,319.2,448.9,324.2,450.9z"/>
	<path class="st0" d="M405.7,571.7c-7.3,4.2-15.3,6.3-23.9,6.3c-8.7,0-16.6-2.1-24-6.3c-7.3-4.2-13.1-10-17.3-17.3
		c-4.2-7.3-6.3-15.3-6.3-23.9v-38h21.2V534c0,7.3,2.5,13.5,7.6,18.6s11.3,7.6,18.6,7.6c7.3,0,13.5-2.5,18.6-7.6s7.6-11.3,7.6-18.6
		v-41.5h21.5v38c0,8.6-2.1,16.6-6.3,23.9C418.8,561.7,413,567.5,405.7,571.7z"/>
	<path class="st0" d="M460.5,449.6v126.1h-21.1V449.6H460.5z"/>
	<path class="st0" d="M491.7,449.6v126.1h-21.1V449.6H491.7z"/>
	<path class="st2" d="M554.4,450.9l-5,14.4c-11.2-2.3-16.8,2.3-16.8,13.9v13.5h18.2v13.2h-18.2v69.8h-21.1v-69.8h-9.9v-13.2h9.9
		v-15.5c0-7.9,2.5-14.7,7.4-20.5s11.7-8.7,20.2-8.7C544.3,448,549.4,448.9,554.4,450.9z"/>
	<path class="st2" d="M654.8,512.1c4.7,6.8,7.1,14.1,7.1,22.1v41.6h-21.1v-8.2c-3.9,3.2-8.7,5.7-14.4,7.6
		c-5.7,1.9-11.5,2.9-17.2,2.9c-15.1,0-27.6-4.2-37.4-12.7c-9.9-8.5-14.9-18.9-15.3-31.2c-0.2-8,2-15.3,6.8-22.1
		c4.7-6.8,11.2-12.1,19.3-16c8.2-3.9,17-5.9,26.6-5.9s18.4,2,26.5,5.9C643.7,500,650.1,505.3,654.8,512.1z M586.6,515.5
		c-6.2,5.2-9.3,11.4-9.1,18.6c0.2,7.3,3.4,13.5,9.5,18.6s13.5,7.7,22.2,7.7c8.8,0,16.3-2.6,22.6-7.8s9.3-11.4,9.1-18.5
		c-0.2-7.3-3.3-13.5-9.4-18.7c-6.1-5.1-13.5-7.7-22.3-7.7C600.3,507.8,592.8,510.3,586.6,515.5z"/>
	<path class="st2" d="M753,496.7c8.6,4.4,15.1,10.1,19.3,17.2l-19.5,7c-2.7-4-6.5-7.2-11.6-9.6c-5-2.4-10.5-3.6-16.2-3.6
		c-8.7,0-16.1,2.6-22.2,7.7c-6.1,5.1-9.2,11.4-9.4,18.7c-0.2,7.2,2.9,13.4,9.1,18.5c6.2,5.2,13.7,7.8,22.5,7.8
		c5.7,0,10.9-1.2,15.6-3.5c4.7-2.4,8.5-5.6,11.4-9.6l20,6.1c-4.6,7.6-11,13.6-19.3,18s-17.6,6.6-27.8,6.6c-9.6,0-18.4-1.9-26.6-5.8
		s-14.6-9.2-19.3-16s-7-14.1-6.8-22c0.2-6,1.7-11.7,4.5-17.1c2.8-5.4,6.5-10.1,11.2-14c4.6-3.9,10.2-7.1,16.7-9.4s13.2-3.5,20.4-3.5
		C735,490.1,744.4,492.3,753,496.7z"/>
	<path class="st2" d="M819.8,578.1c-8.6,0-15.3-2.9-20.2-8.7s-7.4-12.6-7.4-20.5V506h-9.9v-13.2h9.9v-26.5h21.1v26.5h18.2V506h-18.2
		v40.9c0,11.6,5.6,16.2,16.8,13.9l5,14.4C830.1,577.1,825,578.1,819.8,578.1z"/>
	<path class="st2" d="M916.6,571.7c-7.3,4.2-15.3,6.3-23.9,6.3c-8.7,0-16.6-2.1-24-6.3c-7.3-4.2-13.1-10-17.3-17.3
		s-6.3-15.3-6.3-23.9v-38h21.2V534c0,7.3,2.5,13.5,7.6,18.6s11.3,7.6,18.6,7.6s13.5-2.5,18.6-7.6s7.6-11.3,7.6-18.6v-41.5h21.5v38
		c0,8.6-2.1,16.6-6.3,23.9C929.7,561.7,923.9,567.5,916.6,571.7z"/>
	<path class="st2" d="M1005.6,510.5c-2.4-0.8-5.1-1.2-7.8-1.2c-17.5,0-26.2,8.7-26.2,26.2v40.2h-21.2v-38
		c0-31.6,15.9-47.5,47.7-47.5c2.6,0,5.1,0.2,7.6,0.6L1005.6,510.5L1005.6,510.5z"/>
	<path class="st2" d="M1109.3,512.1c4.7,6.8,7.1,14.1,7.1,22.1v41.6h-21.1v-8.2c-3.9,3.2-8.7,5.7-14.4,7.6
		c-5.7,1.9-11.5,2.9-17.2,2.9c-15.1,0-27.6-4.2-37.4-12.7c-9.9-8.5-14.9-18.9-15.3-31.2c-0.2-8,2-15.3,6.8-22.1
		c4.7-6.8,11.2-12.1,19.3-16c8.2-3.9,17-5.9,26.6-5.9s18.4,2,26.5,5.9C1098.1,500,1104.5,505.3,1109.3,512.1z M1041,515.5
		c-6.2,5.2-9.3,11.4-9.1,18.6c0.2,7.3,3.4,13.5,9.5,18.6s13.5,7.7,22.2,7.7c8.8,0,16.3-2.6,22.6-7.8s9.3-11.4,9.1-18.5
		c-0.2-7.3-3.3-13.5-9.4-18.7c-6.1-5.1-13.5-7.7-22.3-7.7C1054.8,507.8,1047.3,510.3,1041,515.5z"/>
</g>
<g>
	<g>
		<path d="M449.9,651.4h2.8l6,24.6l8.8-24.6h2.1l9.1,24.1l6.2-24.1h2.8l-7.3,28h-2.9l-8.8-23.9l-8.7,23.9h-3L449.9,651.4z"/>
		<path d="M490.9,651.4h2.8l6,24.6l8.8-24.6h2.1l9.1,24.1l6.2-24.1h2.8l-7.3,28h-2.9l-8.8-23.9l-8.7,23.9h-3L490.9,651.4z"/>
		<path d="M531.9,651.4h2.8l6,24.6l8.8-24.6h2.1l9.1,24.1l6.2-24.1h2.8l-7.3,28h-2.9l-8.8-23.9l-8.7,23.9h-3L531.9,651.4z"/>
		<path d="M577.8,676v3.3h-3.6V676H577.8z"/>
		<path d="M585,679.3V650c0-6.8,3.7-10.1,11.2-10.1c2.3,0,4.3,0.4,6.2,1v2.4c-1.7-0.7-3.9-1-6.2-1c-5.6,0-8.5,2.6-8.5,7.8v1.3h10.5
			v2.4h-10.4v25.6L585,679.3L585,679.3z"/>
		<path d="M625.1,651.4v28H623l-0.3-3.6c-3.2,2.4-6.8,3.6-10.7,3.6c-6.6,0-9.9-3.5-9.9-10.4v-17.5h2.8V669c0,5.2,2.4,7.8,7.3,7.8
			c3.6,0,7-1.2,10.2-3.6v-22L625.1,651.4L625.1,651.4z"/>
		<path d="M636.9,641.2v38.1h-2.8v-38.1H636.9z"/>
		<path d="M649.2,641.2v38.1h-2.8v-38.1H649.2z"/>
		<path d="M658.3,679.3V650c0-6.8,3.7-10.1,11.2-10.1c2.3,0,4.3,0.4,6.2,1v2.4c-1.7-0.7-3.9-1-6.2-1c-5.6,0-8.5,2.6-8.5,7.8v1.3
			h10.5v2.4h-10.5v25.6L658.3,679.3L658.3,679.3z"/>
		<path d="M673.6,671.4c0-5.5,3.7-8.4,11.1-8.4c2.6,0,5.4,0.2,8.4,0.6v-3.4c0-4.3-2.7-6.4-8.1-6.4c-3.1,0-6.1,0.5-9.1,1.3v-2.4
			c3-0.9,6.1-1.3,9.1-1.3c7.3,0,10.9,2.9,10.9,8.7v19.3h-1.7l-0.6-2.8c-3.5,1.8-6.9,2.8-10.2,2.8
			C676.9,679.3,673.6,676.7,673.6,671.4z M684.8,665.5c-5.5,0-8.3,2-8.3,5.8c0,3.7,2.3,5.6,7,5.6c3.4,0,6.6-0.9,9.7-2.7V666
			C690.1,665.6,687.4,665.5,684.8,665.5z"/>
		<path d="M724.7,678.5c-2.3,0.6-4.8,0.8-7.4,0.8c-9.4,0-14.1-4.8-14.1-14.5c0-9,4.7-13.4,14.1-13.4c2.7,0,5.1,0.2,7.4,0.8v2.4
			c-2.4-0.6-4.9-0.8-7.2-0.8c-7.6,0-11.3,3.7-11.3,11.1c0,8.1,3.8,12.1,11.3,12.1c2.3,0,4.7-0.2,7.2-0.8V678.5z"/>
		<path d="M731.1,646.9h2l0.5,4.5h8.4v2.4h-8.1v17.7c0,3.7,1.3,5.5,4,5.5h4.1v2.4h-3.9c-4.6,0-6.8-2.5-6.8-7.5L731.1,646.9
			L731.1,646.9z"/>
		<path d="M770.9,651.4v28h-2.1l-0.3-3.6c-3.2,2.4-6.8,3.6-10.7,3.6c-6.6,0-9.9-3.5-9.9-10.4v-17.5h2.8V669c0,5.2,2.4,7.8,7.3,7.8
			c3.6,0,7-1.2,10.2-3.6v-22L770.9,651.4L770.9,651.4z"/>
		<path d="M779.5,679.3v-28h2l0.3,4.7c2.8-3.1,5.9-4.7,9.4-4.7v2.2c-3.3,0-6.3,1.7-8.9,4.9v20.9H779.5z"/>
		<path d="M794.8,671.4c0-5.5,3.7-8.4,11.1-8.4c2.6,0,5.4,0.2,8.4,0.6v-3.4c0-4.3-2.7-6.4-8.1-6.4c-3.1,0-6.1,0.5-9.1,1.3v-2.4
			c3-0.9,6.1-1.3,9.1-1.3c7.3,0,10.9,2.9,10.9,8.7v19.3h-1.7l-0.6-2.8c-3.5,1.8-6.9,2.8-10.2,2.8C798,679.3,794.8,676.7,794.8,671.4
			z M805.9,665.5c-5.5,0-8.3,2-8.3,5.8c0,3.7,2.3,5.6,7,5.6c3.4,0,6.6-0.9,9.7-2.7V666C811.2,665.6,808.5,665.5,805.9,665.5z"/>
		<path d="M827.8,676v3.3h-3.6V676H827.8z"/>
		<path d="M855.2,678.5c-2.3,0.6-4.8,0.8-7.4,0.8c-9.4,0-14.1-4.8-14.1-14.5c0-9,4.7-13.4,14.1-13.4c2.7,0,5.1,0.2,7.4,0.8v2.4
			c-2.4-0.6-4.9-0.8-7.2-0.8c-7.6,0-11.3,3.7-11.3,11.1c0,8.1,3.8,12.1,11.3,12.1c2.3,0,4.7-0.2,7.2-0.8V678.5z"/>
		<path d="M860.4,665.3c0-9.5,4.3-14.2,13-14.2c8.7,0,13,4.7,13,14.2s-4.3,14.2-13,14.2C864.9,679.5,860.5,674.8,860.4,665.3z
			 M873.5,677.2c6.9,0,10.3-3.9,10.3-11.9c0-7.8-3.4-11.8-10.3-11.8c-6.9,0-10.3,3.9-10.3,11.8C863.2,673.2,866.7,677.2,873.5,677.2
			z"/>
		<path d="M893.8,679.3v-28h2l0.3,3.6c2.8-2.4,5.9-3.6,9.3-3.6c4.4,0,7.3,1.3,8.5,3.9c3.2-2.5,6.5-3.9,9.8-3.9
			c6.2,0,9.4,3.1,9.4,9.3v18.6h-2.8v-18.6c0-4.5-2.2-6.8-6.6-6.8c-3.6,0-6.4,1.2-8.7,3.6v21.9h-2.8v-19.1c0-4.3-2.3-6.3-6.8-6.3
			c-3.3,0-6.2,1.2-8.8,3.6v21.9h-2.9V679.3z"/>
	</g>
</g>
</svg>
