<?xml version="1.0" encoding="utf-8"?>
<!-- Generator: Adobe Illustrator 22.0.0, SVG Export Plug-In . SVG Version: 6.00 Build 0)  -->
<svg version="1.1" id="Layer_1" xmlns="http://www.w3.org/2000/svg" xmlns:xlink="http://www.w3.org/1999/xlink" x="0px" y="0px"
	 viewBox="0 0 1366 768" style="enable-background:new 0 0 1366 768;" xml:space="preserve">
<style type="text/css">
	.st0{fill:#4275BA;}
	.st1{fill:#8EFD3C;}
	.st2{fill:#FFFFFF;}
</style>
<g>
	<path class="st0" d="M301.5,521.4l-3.4,9.8c-7.6-1.6-11.3,1.5-11.3,9.4v9.1h12.3v8.9h-12.3v47.1h-14.3v-47.1h-6.7v-8.9h6.7v-10.5
		c0-5.3,1.7-10,5-13.9c3.3-3.9,7.9-5.9,13.7-5.9C294.7,519.4,298.1,520.1,301.5,521.4z"/>
	<path class="st0" d="M356.6,603c-4.9,2.9-10.3,4.3-16.2,4.3c-5.8,0-11.2-1.4-16.2-4.3c-4.9-2.9-8.8-6.7-11.7-11.7
		c-2.9-4.9-4.3-10.3-4.3-16.1v-25.7h14.3v28c0,4.9,1.7,9.1,5.2,12.5c3.4,3.4,7.6,5.2,12.5,5.2c4.9,0,9.1-1.7,12.5-5.2
		c3.4-3.4,5.2-7.6,5.2-12.5v-28h14.6v25.7c0,5.8-1.4,11.2-4.3,16.1C365.4,596.2,361.5,600.1,356.6,603z"/>
	<path class="st0" d="M393.6,520.5v85.2h-14.3v-85.2H393.6z"/>
	<path class="st0" d="M414.6,520.5v85.2h-14.3v-85.2H414.6z"/>
	<path class="st1" d="M457,521.4l-3.4,9.8c-7.6-1.6-11.3,1.5-11.3,9.4v9.1h12.3v8.9h-12.3v47.1H428v-47.1h-6.7v-8.9h6.7v-10.5
		c0-5.3,1.7-10,5-13.9c3.3-3.9,7.9-5.9,13.7-5.9C450.2,519.4,453.6,520.1,457,521.4z"/>
	<path class="st1" d="M524.8,562.7c3.2,4.6,4.8,9.5,4.8,14.9v28.1h-14.3v-5.5c-2.6,2.1-5.9,3.9-9.7,5.2c-3.9,1.3-7.7,1.9-11.6,1.9
		c-10.2,0-18.6-2.9-25.3-8.6c-6.7-5.7-10.1-12.7-10.3-21.1c-0.2-5.4,1.4-10.3,4.6-14.9c3.2-4.6,7.5-8.2,13.1-10.8
		c5.5-2.7,11.5-4,18-4c6.5,0,12.4,1.3,17.9,4C517.3,554.5,521.6,558.1,524.8,562.7z M478.7,565c-4.2,3.5-6.3,7.7-6.1,12.6
		c0.1,4.9,2.3,9.1,6.4,12.6c4.1,3.5,9.1,5.2,15,5.2c5.9,0,11-1.7,15.3-5.2c4.2-3.5,6.3-7.7,6.1-12.5c-0.1-4.9-2.2-9.1-6.3-12.6
		c-4.1-3.5-9.1-5.2-15-5.2C488,559.8,483,561.5,478.7,565z"/>
	<path class="st1" d="M591.1,552.3c5.8,3,10.2,6.8,13,11.6l-13.2,4.7c-1.8-2.7-4.4-4.9-7.8-6.5c-3.4-1.6-7.1-2.4-11-2.4
		c-5.9,0-10.9,1.7-15,5.2c-4.1,3.5-6.2,7.7-6.4,12.6c-0.1,4.8,1.9,9,6.1,12.5c4.2,3.5,9.3,5.2,15.2,5.2c3.9,0,7.4-0.8,10.5-2.4
		c3.2-1.6,5.7-3.8,7.7-6.5l13.5,4.1c-3.1,5.1-7.4,9.2-13,12.2c-5.6,3-11.9,4.5-18.8,4.5c-6.5,0-12.5-1.3-18-3.9
		c-5.5-2.6-9.9-6.2-13.1-10.8c-3.2-4.6-4.7-9.5-4.6-14.9c0.1-4.1,1.1-7.9,3-11.6c1.9-3.6,4.4-6.8,7.6-9.4c3.1-2.7,6.9-4.8,11.3-6.3
		c4.4-1.6,8.9-2.4,13.8-2.4C579,547.9,585.3,549.4,591.1,552.3z"/>
	<path class="st1" d="M636.3,607.3c-5.8,0-10.3-2-13.7-5.9c-3.3-3.9-5-8.5-5-13.9v-29h-6.7v-8.9h6.7v-17.9h14.3v17.9h12.3v8.9h-12.3
		v27.6c0,7.8,3.8,10.9,11.3,9.4l3.4,9.8C643.2,606.6,639.8,607.3,636.3,607.3z"/>
	<path class="st1" d="M701.7,603c-4.9,2.9-10.3,4.3-16.2,4.3s-11.2-1.4-16.2-4.3c-4.9-2.9-8.8-6.7-11.7-11.7
		c-2.9-4.9-4.3-10.3-4.3-16.1v-25.7h14.3v28c0,4.9,1.7,9.1,5.2,12.5c3.4,3.4,7.6,5.2,12.5,5.2s9.1-1.7,12.5-5.2
		c3.4-3.4,5.2-7.6,5.2-12.5v-28h14.5v25.7c0,5.8-1.4,11.2-4.3,16.1C710.5,596.2,706.6,600.1,701.7,603z"/>
	<path class="st1" d="M761.7,561.6c-1.7-0.5-3.4-0.8-5.3-0.8c-11.8,0-17.7,5.9-17.7,17.7v27.1h-14.3V580c0-21.4,10.7-32.1,32.2-32.1
		c1.7,0,3.4,0.1,5.1,0.4V561.6z"/>
	<path class="st1" d="M831.8,562.7c3.2,4.6,4.8,9.5,4.8,14.9v28.1h-14.3v-5.5c-2.6,2.1-5.9,3.9-9.7,5.2c-3.9,1.3-7.7,1.9-11.6,1.9
		c-10.2,0-18.6-2.9-25.3-8.6c-6.7-5.7-10.1-12.7-10.3-21.1c-0.2-5.4,1.4-10.3,4.6-14.9c3.2-4.6,7.5-8.2,13.1-10.8
		c5.5-2.7,11.5-4,18-4c6.5,0,12.4,1.3,17.9,4C824.3,554.5,828.6,558.1,831.8,562.7z M785.7,565c-4.2,3.5-6.3,7.7-6.1,12.6
		c0.1,4.9,2.3,9.1,6.4,12.6c4.1,3.5,9.1,5.2,15,5.2c5.9,0,11-1.7,15.3-5.2c4.2-3.5,6.3-7.7,6.1-12.5c-0.1-4.9-2.2-9.1-6.3-12.6
		s-9.1-5.2-15-5.2C795,559.8,789.9,561.5,785.7,565z"/>
	<path class="st0" d="M858.2,599.8c0,2-0.7,3.7-2.2,5.2c-1.5,1.5-3.2,2.2-5.2,2.2c-2,0-3.8-0.7-5.2-2.2c-1.5-1.5-2.2-3.2-2.2-5.2
		c0-2,0.7-3.8,2.2-5.2c1.5-1.5,3.2-2.2,5.2-2.2c2,0,3.8,0.7,5.2,2.2C857.4,596,858.2,597.8,858.2,599.8z"/>
	<path class="st0" d="M919.7,552.3c5.8,3,10.2,6.8,13,11.6l-13.2,4.7c-1.8-2.7-4.4-4.9-7.8-6.5c-3.4-1.6-7.1-2.4-11-2.4
		c-5.9,0-10.9,1.7-15,5.2c-4.1,3.5-6.2,7.7-6.4,12.6c-0.1,4.8,1.9,9,6.1,12.5c4.2,3.5,9.3,5.2,15.2,5.2c3.9,0,7.4-0.8,10.5-2.4
		c3.2-1.6,5.7-3.8,7.7-6.5l13.5,4.1c-3.1,5.1-7.4,9.2-13,12.2c-5.6,3-11.9,4.5-18.8,4.5c-6.5,0-12.5-1.3-18-3.9
		c-5.5-2.6-9.9-6.2-13.1-10.8c-3.2-4.6-4.7-9.5-4.6-14.9c0.1-4.1,1.1-7.9,3-11.6c1.9-3.6,4.4-6.8,7.6-9.4c3.1-2.7,6.9-4.8,11.3-6.3
		c4.4-1.6,8.9-2.4,13.8-2.4C907.6,547.9,913.9,549.4,919.7,552.3z"/>
	<path class="st0" d="M993.2,551.9c5.5,2.6,9.9,6.2,13.1,10.8c3.2,4.6,4.7,9.5,4.6,14.9c-0.2,4-1.2,7.9-3,11.5s-4.4,6.8-7.6,9.5
		s-6.9,4.8-11.3,6.3c-4.3,1.6-8.9,2.3-13.8,2.3c-6.4,0-12.4-1.3-17.9-3.9c-5.5-2.6-9.9-6.2-13.1-10.8c-3.2-4.6-4.7-9.5-4.6-14.9
		c0.2-4.1,1.2-7.9,3-11.6c1.9-3.6,4.4-6.8,7.5-9.4c3.1-2.7,6.9-4.8,11.3-6.3c4.4-1.6,8.9-2.3,13.8-2.3
		C981.7,547.9,987.7,549.3,993.2,551.9z M960.3,565c-4.1,3.5-6.2,7.7-6.3,12.6c-0.2,4.9,1.9,9.1,6.1,12.6c4.2,3.5,9.3,5.2,15.2,5.2
		c5.9,0,10.9-1.7,15-5.2c4.1-3.5,6.2-7.7,6.3-12.6c0.2-4.9-1.9-9.1-6.1-12.6c-4.2-3.5-9.3-5.2-15.3-5.2
		C969.4,559.8,964.4,561.5,960.3,565z"/>
	<path class="st0" d="M1060.2,551.5c4.2,2.4,7.5,5.6,10.1,9.8c2.5-4.1,5.9-7.4,10-9.8c4.2-2.4,8.8-3.6,13.9-3.6
		c5.4,0,10.3,1.3,14.6,4c4.4,2.7,7.8,6.3,10.2,10.8c2.4,4.5,3.6,9.5,3.6,15v28h-14.6v-30.5c0-4.3-1.5-7.9-4.5-10.9
		c-3-3-6.6-4.5-10.9-4.5s-7.9,1.5-10.9,4.5c-3,3-4.5,6.6-4.5,10.9v30.5h-14.5v-30.5c0-4.3-1.5-7.9-4.5-10.9c-3-3-6.6-4.5-10.9-4.5
		s-7.9,1.5-10.8,4.5c-3,3-4.5,6.6-4.5,10.9v30.5h-14.3v-28c0-5.5,1.2-10.4,3.6-15c2.4-4.5,5.8-8.1,10.2-10.8c4.4-2.7,9.3-4,14.6-4
		C1051.4,547.9,1056,549.1,1060.2,551.5z"/>
</g>
<g>
	<path class="st0" d="M817.8,134.5L602.6,177c0,0-76.7,13.9-61.6,90.4c15.1,76.5,41.8,211.5,41.8,211.5l190.3-37.6
		c0,0,99.4-30,81.6-120.2S817.8,134.5,817.8,134.5z"/>
</g>
<path class="st2" d="M794.7,169.4l-168.9,33.4c0,0-60.2,10.9-48.4,70.9s32.8,166,32.8,166l149.4-29.5c0,0,78-23.5,64-94.3
	S794.7,169.4,794.7,169.4z"/>
<path class="st1" d="M756.4,273.1l-115.6,22.8c-4.7,0.9-9.3-2.1-10.2-6.8l-0.4-2.3c-0.9-4.7,2.1-9.3,6.8-10.2l115.6-22.8
	c4.7-0.9,9.3,2.1,10.2,6.8l0.4,2.3C764.1,267.6,761.1,272.1,756.4,273.1z"/>
<path class="st1" d="M768.8,336l-115.6,22.8c-4.7,0.9-9.3-2.1-10.2-6.8l-0.4-2.3c-0.9-4.7,2.1-9.3,6.8-10.2L765,316.7
	c4.7-0.9,9.3,2.1,10.2,6.8l0.4,2.3C776.6,330.5,773.5,335,768.8,336z"/>
<rect x="744" y="138.6" transform="matrix(0.9811 -0.1937 0.1937 0.9811 -17.0401 151.9677)" class="st2" width="49" height="49"/>
<rect x="611.4" y="418.9" transform="matrix(0.9811 -0.1937 0.1937 0.9811 -73.866 131.5838)" class="st2" width="49" height="49.2"/>
</svg>
