<?xml version="1.0" encoding="utf-8"?>
<!-- Generator: Adobe Illustrator 22.1.0, SVG Export Plug-In . SVG Version: 6.00 Build 0)  -->
<svg version="1.1" id="Layer_1" xmlns="http://www.w3.org/2000/svg" xmlns:xlink="http://www.w3.org/1999/xlink" x="0px" y="0px"
	 viewBox="0 0 113.4 85" style="enable-background:new 0 0 113.4 85;" xml:space="preserve">
<style type="text/css">
	.st0{fill:#F78F37;}
	.st1{fill:#58595B;}
</style>
<g>
	<path class="st0" d="M19.5,28.3L19.2,31l13.7,1.5c0,0,8.8-11,22.1-10.8s19.1,7.6,19.1,7.6s13.5,0.7,20.3,7.1l2-2
		c0,0-8.7-7.4-21.1-7.4c0,0-6.9-8.1-20.8-8.1S31.2,29.8,31.2,29.8L19.5,28.3z"/>
	<g>
		<path class="st1" d="M14.9,36.8c-0.5-0.5-1.1-1-1.9-1.3c-0.8-0.3-1.7-0.5-2.8-0.5h-8v17.7h3.9v-6.3h4.1c1.1,0,2-0.2,2.8-0.5
			s1.4-0.7,1.9-1.3c0.5-0.5,0.8-1.1,1.1-1.8c0.2-0.7,0.3-1.4,0.3-2.1c0-0.7-0.1-1.4-0.3-2.1C15.7,38,15.4,37.4,14.9,36.8z
			 M12.2,42.1c-0.2,0.3-0.4,0.6-0.8,0.8c-0.3,0.2-0.7,0.3-1.1,0.4c-0.4,0.1-0.8,0.1-1.3,0.1h-3v-5.3h3c0.4,0,0.9,0,1.3,0.1
			s0.8,0.2,1.1,0.4c0.3,0.2,0.6,0.5,0.8,0.8c0.2,0.3,0.3,0.8,0.3,1.4C12.5,41.3,12.4,41.8,12.2,42.1z"/>
		<path class="st1" d="M25.3,46.7c0,1.3-0.2,2.2-0.6,2.8c-0.4,0.6-1.1,0.9-2.1,0.9c-0.8,0-1.4-0.3-1.8-0.8c-0.3-0.5-0.5-1.3-0.5-2.4
			V40h-3.5v7.9c0,0.8,0.1,1.5,0.2,2.2c0.1,0.7,0.4,1.2,0.7,1.7c0.3,0.5,0.8,0.8,1.4,1.1c0.6,0.2,1.4,0.4,2.3,0.4
			c0.7,0,1.5-0.2,2.2-0.5c0.7-0.3,1.3-0.9,1.7-1.6h0.1v1.8h3.3V40h-3.5V46.7z"/>
		<path class="st1" d="M41.3,41.2c-0.5-0.5-1.1-0.9-1.7-1.2c-0.6-0.3-1.3-0.4-1.9-0.4c-0.8,0-1.6,0.2-2.3,0.5
			c-0.7,0.3-1.3,0.8-1.7,1.4h0v-6.4h-3.5v17.7h3.3v-1.6h0c0.4,0.7,0.9,1.2,1.7,1.5c0.7,0.3,1.6,0.4,2.5,0.4c0.6,0,1.3-0.1,1.9-0.4
			c0.6-0.3,1.2-0.7,1.7-1.2c0.5-0.5,0.9-1.2,1.2-2.1c0.3-0.9,0.5-1.9,0.5-3s-0.2-2.2-0.5-3C42.2,42.5,41.8,41.8,41.3,41.2z
			 M39.3,47.9c-0.1,0.5-0.3,0.9-0.5,1.3c-0.2,0.4-0.6,0.7-0.9,0.9c-0.4,0.2-0.8,0.3-1.4,0.3c-0.5,0-1-0.1-1.3-0.3s-0.7-0.5-0.9-0.9
			c-0.2-0.4-0.4-0.8-0.5-1.3c-0.1-0.5-0.2-1-0.2-1.5c0-0.5,0.1-1.1,0.2-1.6c0.1-0.5,0.3-0.9,0.5-1.3c0.2-0.4,0.6-0.7,0.9-0.9
			s0.8-0.3,1.3-0.3c0.5,0,1,0.1,1.4,0.3c0.4,0.2,0.7,0.5,0.9,0.9c0.2,0.4,0.4,0.8,0.5,1.3c0.1,0.5,0.2,1,0.2,1.6
			C39.4,46.9,39.4,47.4,39.3,47.9z"/>
		<rect x="43.8" y="35.1" class="st1" width="3.5" height="17.7"/>
		<rect x="48.7" y="35.1" class="st1" width="3.5" height="2.9"/>
		<path class="st1" d="M58.9,35.1l-6.7,17.2V40h-3.5v12.8H52h0.2h2.2l2-5.3h7.5l1.9,5.3h2.6l-6.9-17.7H58.9z M57.2,45.5l3-8.3h0
			l2.9,8.3H57.2z"/>
		<path class="st1" d="M76.3,47.2c0,0.6-0.1,1.1-0.2,1.6s-0.4,0.9-0.7,1.3c-0.3,0.4-0.7,0.6-1.2,0.8s-1,0.3-1.7,0.3
			c-0.8,0-1.4-0.2-1.9-0.7c-0.5-0.5-0.7-1.1-0.7-1.9V40h-2.1v8.4c0,0.7,0.1,1.3,0.2,1.9c0.1,0.6,0.4,1.1,0.7,1.5s0.8,0.7,1.4,1
			c0.6,0.2,1.3,0.3,2.1,0.3c0.9,0,1.8-0.2,2.5-0.6c0.7-0.4,1.3-1,1.7-1.7h0v2h2V40h-2.1V47.2z"/>
		<path class="st1" d="M83.5,36.1h-2.1V40h-2.2v1.9h2.2V50c0,0.6,0.1,1.1,0.2,1.4c0.1,0.4,0.3,0.6,0.5,0.8s0.6,0.3,0.9,0.4
			c0.4,0.1,0.9,0.1,1.4,0.1h1.6v-1.9h-1c-0.3,0-0.6,0-0.8,0c-0.2,0-0.4-0.1-0.5-0.2c-0.1-0.1-0.2-0.2-0.2-0.3s-0.1-0.3-0.1-0.6v-8
			h2.6V40h-2.6V36.1z"/>
		<path class="st1" d="M97.6,41.6c-0.5-0.6-1.2-1.1-1.9-1.4c-0.8-0.3-1.7-0.5-2.7-0.5c-1,0-1.9,0.2-2.7,0.5c-0.8,0.3-1.4,0.8-2,1.4
			c-0.5,0.6-0.9,1.3-1.2,2.1c-0.3,0.8-0.4,1.7-0.4,2.6s0.1,1.8,0.4,2.6c0.3,0.8,0.7,1.5,1.2,2.1s1.2,1.1,2,1.4
			C91.1,52.9,92,53,93,53c1,0,1.9-0.2,2.7-0.5c0.8-0.3,1.4-0.8,1.9-1.4s0.9-1.3,1.2-2.1c0.3-0.8,0.4-1.7,0.4-2.6s-0.1-1.8-0.4-2.6
			C98.5,42.9,98.1,42.2,97.6,41.6z M96.6,48.4c-0.2,0.6-0.5,1.1-0.9,1.5c-0.4,0.4-0.8,0.7-1.3,0.9s-1,0.3-1.5,0.3s-1.1-0.1-1.5-0.3
			s-0.9-0.5-1.3-0.9c-0.4-0.4-0.6-0.9-0.9-1.5c-0.2-0.6-0.3-1.3-0.3-2.1s0.1-1.5,0.3-2.1c0.2-0.6,0.5-1.1,0.9-1.5
			c0.4-0.4,0.8-0.7,1.3-0.9s1-0.3,1.5-0.3s1.1,0.1,1.5,0.3s0.9,0.5,1.3,0.9c0.4,0.4,0.6,0.9,0.9,1.5c0.2,0.6,0.3,1.3,0.3,2.1
			S96.8,47.8,96.6,48.4z"/>
		<path class="st1" d="M109.5,51.3c0,0-0.4,0.3-1,0.3s-1-0.3-1-0.3v0.2h-1.6v-0.3l0,0c-0.1,0-0.3,0-0.4,0c-0.4,0-0.8,0-1.3-0.1
			c-0.4-0.1-0.8-0.2-1.1-0.4c-0.3-0.2-0.6-0.4-0.8-0.8c-0.2-0.3-0.3-0.7-0.3-1.2h-2.1c0,0.8,0.2,1.5,0.5,2c0.3,0.6,0.7,1,1.2,1.3
			c0.5,0.3,1.1,0.6,1.7,0.7c0.6,0.1,1.3,0.2,2,0.2c0.6,0,1.3-0.1,1.9-0.2c0.7-0.1,1.2-0.3,1.8-0.7c0.3-0.2,0.6-0.4,0.8-0.7l0,0h-0.3
			V51.3z"/>
		<path class="st1" d="M102.3,46.3c0.6,0.3,1.3,0.5,2,0.6c0.7,0.1,1.4,0.3,2,0.5c0.4,0.1,0.8,0.3,1.2,0.5l0,0c0,0,0.9-0.6,2,0v-0.2
			h1l0,0c0,0,0-0.1-0.1-0.1c-0.2-0.4-0.6-0.8-0.9-1c-0.4-0.3-0.8-0.5-1.3-0.7c-0.5-0.2-1-0.3-1.5-0.4c-0.5-0.1-1-0.2-1.5-0.3
			c-0.5-0.1-0.9-0.2-1.3-0.4c-0.4-0.2-0.7-0.4-1-0.6s-0.4-0.5-0.4-0.9c0-0.3,0.1-0.6,0.2-0.8c0.2-0.2,0.4-0.4,0.6-0.5
			c0.3-0.1,0.6-0.2,0.9-0.3c0.3,0,0.6-0.1,1-0.1c0.3,0,0.7,0,1,0.1c0.3,0.1,0.6,0.2,0.9,0.4c0.3,0.2,0.5,0.4,0.7,0.7
			c0.2,0.3,0.3,0.6,0.3,1h2.1c0-0.8-0.2-1.4-0.5-1.9c-0.3-0.5-0.7-0.9-1.1-1.2c-0.5-0.3-1-0.5-1.6-0.6c-0.6-0.1-1.3-0.2-2-0.2
			c-0.6,0-1.1,0.1-1.7,0.2c-0.6,0.1-1.1,0.4-1.5,0.6c-0.5,0.3-0.8,0.7-1.1,1.1c-0.3,0.5-0.4,1-0.4,1.7c0,0.8,0.2,1.5,0.6,1.9
			C101.2,45.7,101.7,46.1,102.3,46.3z"/>
		<rect x="106.3" y="50.4" class="st1" width="0.6" height="0.6"/>
		<path class="st1" d="M107.9,48.9c0.1-0.1,0.1-0.2,0.2-0.2c0.1-0.1,0.2-0.1,0.4-0.1c0.1,0,0.2,0,0.2,0s0.1,0.1,0.2,0.1
			s0.1,0.1,0.1,0.2c0,0.1,0.1,0.1,0.1,0.2h0.6c0-0.2-0.1-0.3-0.1-0.4c-0.1-0.1-0.2-0.2-0.3-0.3c-0.1-0.1-0.2-0.2-0.4-0.2
			c-0.1,0-0.3-0.1-0.5-0.1c-0.2,0-0.4,0-0.6,0.1c-0.2,0.1-0.3,0.2-0.4,0.3c-0.1,0.1-0.2,0.3-0.3,0.5s-0.1,0.4-0.1,0.6
			c0,0.2,0,0.4,0.1,0.6s0.2,0.3,0.3,0.5s0.3,0.2,0.4,0.3c0.2,0.1,0.4,0.1,0.6,0.1c0.2,0,0.3,0,0.5-0.1c0.1-0.1,0.3-0.1,0.4-0.2
			c0.1-0.1,0.2-0.2,0.3-0.4c0.1-0.1,0.1-0.3,0.1-0.5h-0.6c0,0.2-0.1,0.3-0.2,0.5c-0.1,0.1-0.3,0.2-0.5,0.2c-0.1,0-0.3,0-0.4-0.1
			c-0.1-0.1-0.2-0.1-0.2-0.2c-0.1-0.1-0.1-0.2-0.1-0.3c0-0.1,0-0.2,0-0.4c0-0.1,0-0.2,0-0.4C107.8,49.1,107.9,49,107.9,48.9z"/>
		<path class="st1" d="M112.4,50.9c0-0.1,0-0.1,0-0.2s0-0.1,0-0.2c0-0.1,0-0.1,0-0.2c0-0.1,0-0.1,0-0.2c0-0.1,0-0.1-0.1-0.2
			s-0.1-0.1-0.1-0.2c-0.1,0-0.1-0.1-0.2-0.1v0c0.2-0.1,0.3-0.2,0.3-0.3c0.1-0.1,0.1-0.3,0.1-0.4c0-0.1,0-0.2-0.1-0.3
			c0-0.1-0.1-0.2-0.2-0.3c-0.1-0.1-0.2-0.1-0.3-0.2c-0.1,0-0.2-0.1-0.3-0.1H110V51h0.6v-1.1h0.6c0.2,0,0.3,0,0.3,0.1
			c0.1,0.1,0.1,0.2,0.1,0.3c0,0.1,0,0.2,0,0.4c0,0.1,0,0.2,0.1,0.3h0.6C112.4,51,112.4,50.9,112.4,50.9z M111.6,49.3
			c-0.1,0.1-0.2,0.1-0.3,0.1h-0.7v-0.8h0.7c0.1,0,0.3,0,0.3,0.1c0.1,0.1,0.1,0.2,0.1,0.3C111.8,49.2,111.7,49.3,111.6,49.3z"/>
	</g>
</g>
</svg>
